<mxfile host="drawio-plugin" modified="2023-10-25T16:37:11.018Z" agent="5.0 (Windows NT 6.2; Win64; x64) AppleWebKit/537.36 (KHTML, like Gecko) Chrome/104.0.5112.102 Safari/537.36" version="20.5.3" etag="Pm6rNQ4ebAHNasNECcxC" type="embed" pages="2"><diagram id="iw_Ipb2jcGWQR2qXDSbV" name="Page-1"><mxGraphModel dx="2796" dy="3136" grid="1" gridSize="10" guides="1" tooltips="1" connect="1" arrows="1" fold="1" page="1" pageScale="1" pageWidth="850" pageHeight="1100" math="0" shadow="0"><root><mxCell id="0"/><mxCell id="1" parent="0"/><mxCell id="2" value="" style="whiteSpace=wrap;html=1;aspect=fixed;strokeColor=#F0F0F0;fillColor=#FFFFFF;movable=0;resizable=0;rotatable=0;deletable=0;editable=0;connectable=0;" vertex="1" parent="1"><mxGeometry y="-20" width="1830" height="1830" as="geometry"/></mxCell><mxCell id="3" value="&lt;b style=&quot;font-size: 28px;&quot;&gt;Dataset &lt;font style=&quot;font-size: 28px;&quot;&gt;analyser - no classifier needed&lt;/font&gt;&lt;/b&gt;" style="text;html=1;strokeColor=none;fillColor=none;align=center;verticalAlign=middle;whiteSpace=wrap;rounded=0;" vertex="1" parent="1"><mxGeometry x="560" y="-60" width="760" height="30" as="geometry"/></mxCell><mxCell id="4" value="&lt;font style=&quot;font-size: 20px;&quot;&gt;Header, navbar, Icon, ....&lt;/font&gt;" style="rounded=0;whiteSpace=wrap;html=1;fontSize=28;" vertex="1" parent="1"><mxGeometry y="-20" width="1830" height="60" as="geometry"/></mxCell><mxCell id="5" value="&lt;font color=&quot;#000000&quot; style=&quot;font-size: 20px;&quot;&gt;Inputfield - Dataset&lt;/font&gt;" style="rounded=0;whiteSpace=wrap;html=1;fontSize=28;fillColor=#FFFFFF;strokeColor=#000000;" vertex="1" parent="1"><mxGeometry x="5" y="70" width="230" height="40" as="geometry"/></mxCell><mxCell id="6" value="&lt;font color=&quot;#000000&quot; style=&quot;font-size: 20px;&quot;&gt;Inputfield - label&lt;/font&gt;" style="rounded=0;whiteSpace=wrap;html=1;fontSize=28;fillColor=#FFFFFF;strokeColor=#000000;" vertex="1" parent="1"><mxGeometry x="690" y="70" width="230" height="40" as="geometry"/></mxCell><mxCell id="7" value="&lt;font color=&quot;#000000&quot; style=&quot;font-size: 20px;&quot;&gt;Inputfield - sensAttr&lt;/font&gt;" style="rounded=0;whiteSpace=wrap;html=1;fontSize=28;fillColor=#FFFFFF;strokeColor=#000000;" vertex="1" parent="1"><mxGeometry x="460" y="70" width="230" height="40" as="geometry"/></mxCell><mxCell id="8" value="&lt;font color=&quot;#000000&quot; style=&quot;font-size: 20px;&quot;&gt;Inputfield - randomstate&lt;/font&gt;" style="rounded=0;whiteSpace=wrap;html=1;fontSize=28;fillColor=#FFFFFF;strokeColor=#000000;" vertex="1" parent="1"><mxGeometry x="230" y="70" width="230" height="40" as="geometry"/></mxCell><mxCell id="9" value="&lt;font color=&quot;#000000&quot; style=&quot;font-size: 20px;&quot;&gt;Inputfield - tsne ??&lt;/font&gt;" style="rounded=0;whiteSpace=wrap;html=1;fontSize=28;fillColor=#FFFFFF;strokeColor=#000000;" vertex="1" parent="1"><mxGeometry x="920" y="70" width="230" height="40" as="geometry"/></mxCell><mxCell id="10" value="&lt;font style=&quot;font-size: 32px;&quot;&gt;Scatter - Chart&lt;/font&gt;" style="whiteSpace=wrap;html=1;aspect=fixed;strokeColor=#000000;fontSize=16;fontColor=#000000;fillColor=#999999;" vertex="1" parent="1"><mxGeometry x="30" y="220" width="830" height="830" as="geometry"/></mxCell><mxCell id="11" value="&lt;font color=&quot;#000000&quot;&gt;&lt;span style=&quot;font-size: 20px;&quot;&gt;xAxis Chooser&lt;/span&gt;&lt;/font&gt;" style="rounded=0;whiteSpace=wrap;html=1;fontSize=28;fillColor=#FFFFFF;strokeColor=#000000;" vertex="1" parent="1"><mxGeometry x="120" y="160" width="230" height="40" as="geometry"/></mxCell><mxCell id="12" value="&lt;font color=&quot;#000000&quot;&gt;&lt;span style=&quot;font-size: 20px;&quot;&gt;yAxis Chooser&lt;/span&gt;&lt;/font&gt;" style="rounded=0;whiteSpace=wrap;html=1;fontSize=28;fillColor=#FFFFFF;strokeColor=#000000;" vertex="1" parent="1"><mxGeometry x="410" y="160" width="230" height="40" as="geometry"/></mxCell><mxCell id="13" value="&lt;font color=&quot;#000000&quot;&gt;&lt;span style=&quot;font-size: 20px;&quot;&gt;Reset Zoom button&lt;/span&gt;&lt;/font&gt;" style="rounded=0;whiteSpace=wrap;html=1;fontSize=28;fillColor=#FFFFFF;strokeColor=#000000;" vertex="1" parent="1"><mxGeometry x="270" y="1070" width="230" height="40" as="geometry"/></mxCell><mxCell id="14" value="&lt;font color=&quot;#000000&quot;&gt;&lt;span style=&quot;font-size: 20px;&quot;&gt;show label 0&lt;/span&gt;&lt;/font&gt;" style="rounded=0;whiteSpace=wrap;html=1;fontSize=28;fillColor=#FFFFFF;strokeColor=#000000;" vertex="1" parent="1"><mxGeometry x="180" y="240" width="120" height="40" as="geometry"/></mxCell><mxCell id="15" value="&lt;font color=&quot;#000000&quot;&gt;&lt;span style=&quot;font-size: 20px;&quot;&gt;show label 1&lt;/span&gt;&lt;/font&gt;" style="rounded=0;whiteSpace=wrap;html=1;fontSize=28;fillColor=#FFFFFF;strokeColor=#000000;" vertex="1" parent="1"><mxGeometry x="460" y="240" width="120" height="40" as="geometry"/></mxCell><mxCell id="16" value="attribute" style="swimlane;fontStyle=0;childLayout=stackLayout;horizontal=1;startSize=30;horizontalStack=0;resizeParent=1;resizeParentMax=0;resizeLast=0;collapsible=1;marginBottom=0;whiteSpace=wrap;html=1;strokeColor=#000000;fontSize=32;fontColor=#000000;fillColor=#999999;rotation=0;" vertex="1" parent="1"><mxGeometry x="920.04" y="220" width="229.96" height="830" as="geometry"/></mxCell><mxCell id="17" value="a1" style="text;strokeColor=none;fillColor=none;align=center;verticalAlign=middle;spacingLeft=4;spacingRight=4;overflow=hidden;points=[[0,0.5],[1,0.5]];portConstraint=eastwest;rotatable=0;whiteSpace=wrap;html=1;fontSize=32;fontColor=#000000;rotation=0;" vertex="1" parent="16"><mxGeometry y="30" width="229.96" height="60" as="geometry"/></mxCell><mxCell id="18" value="a2" style="text;strokeColor=none;fillColor=none;align=center;verticalAlign=middle;spacingLeft=4;spacingRight=4;overflow=hidden;points=[[0,0.5],[1,0.5]];portConstraint=eastwest;rotatable=0;whiteSpace=wrap;html=1;fontSize=32;fontColor=#000000;rotation=0;" vertex="1" parent="16"><mxGeometry y="90" width="229.96" height="60" as="geometry"/></mxCell><mxCell id="19" value="...." style="text;strokeColor=none;fillColor=none;align=center;verticalAlign=middle;spacingLeft=4;spacingRight=4;overflow=hidden;points=[[0,0.5],[1,0.5]];portConstraint=eastwest;rotatable=0;whiteSpace=wrap;html=1;fontSize=32;fontColor=#000000;rotation=0;" vertex="1" parent="16"><mxGeometry y="150" width="229.96" height="680" as="geometry"/></mxCell><mxCell id="20" value="Selected P1" style="swimlane;fontStyle=0;childLayout=stackLayout;horizontal=1;startSize=30;horizontalStack=0;resizeParent=1;resizeParentMax=0;resizeLast=0;collapsible=1;marginBottom=0;whiteSpace=wrap;html=1;strokeColor=#000000;fontSize=32;fontColor=#000000;fillColor=#999999;rotation=0;" vertex="1" parent="1"><mxGeometry x="1150" y="220" width="229.96" height="830" as="geometry"/></mxCell><mxCell id="21" value="a1" style="text;strokeColor=none;fillColor=none;align=center;verticalAlign=middle;spacingLeft=4;spacingRight=4;overflow=hidden;points=[[0,0.5],[1,0.5]];portConstraint=eastwest;rotatable=0;whiteSpace=wrap;html=1;fontSize=32;fontColor=#000000;rotation=0;" vertex="1" parent="20"><mxGeometry y="30" width="229.96" height="60" as="geometry"/></mxCell><mxCell id="22" value="a2" style="text;strokeColor=none;fillColor=none;align=center;verticalAlign=middle;spacingLeft=4;spacingRight=4;overflow=hidden;points=[[0,0.5],[1,0.5]];portConstraint=eastwest;rotatable=0;whiteSpace=wrap;html=1;fontSize=32;fontColor=#000000;rotation=0;" vertex="1" parent="20"><mxGeometry y="90" width="229.96" height="60" as="geometry"/></mxCell><mxCell id="23" value="..." style="text;strokeColor=none;fillColor=none;align=center;verticalAlign=middle;spacingLeft=4;spacingRight=4;overflow=hidden;points=[[0,0.5],[1,0.5]];portConstraint=eastwest;rotatable=0;whiteSpace=wrap;html=1;fontSize=32;fontColor=#000000;rotation=0;" vertex="1" parent="20"><mxGeometry y="150" width="229.96" height="680" as="geometry"/></mxCell><mxCell id="24" value="Selected P2" style="swimlane;fontStyle=0;childLayout=stackLayout;horizontal=1;startSize=30;horizontalStack=0;resizeParent=1;resizeParentMax=0;resizeLast=0;collapsible=1;marginBottom=0;whiteSpace=wrap;html=1;strokeColor=#000000;fontSize=32;fontColor=#000000;fillColor=#999999;rotation=0;" vertex="1" parent="1"><mxGeometry x="1379.96" y="220" width="229.96" height="830" as="geometry"/></mxCell><mxCell id="25" value="a1" style="text;strokeColor=none;fillColor=none;align=center;verticalAlign=middle;spacingLeft=4;spacingRight=4;overflow=hidden;points=[[0,0.5],[1,0.5]];portConstraint=eastwest;rotatable=0;whiteSpace=wrap;html=1;fontSize=32;fontColor=#000000;rotation=0;" vertex="1" parent="24"><mxGeometry y="30" width="229.96" height="60" as="geometry"/></mxCell><mxCell id="26" value="a2" style="text;strokeColor=none;fillColor=none;align=center;verticalAlign=middle;spacingLeft=4;spacingRight=4;overflow=hidden;points=[[0,0.5],[1,0.5]];portConstraint=eastwest;rotatable=0;whiteSpace=wrap;html=1;fontSize=32;fontColor=#000000;rotation=0;" vertex="1" parent="24"><mxGeometry y="90" width="229.96" height="60" as="geometry"/></mxCell><mxCell id="27" value="..." style="text;strokeColor=none;fillColor=none;align=center;verticalAlign=middle;spacingLeft=4;spacingRight=4;overflow=hidden;points=[[0,0.5],[1,0.5]];portConstraint=eastwest;rotatable=0;whiteSpace=wrap;html=1;fontSize=32;fontColor=#000000;rotation=0;" vertex="1" parent="24"><mxGeometry y="150" width="229.96" height="680" as="geometry"/></mxCell><mxCell id="28" value="&lt;font style=&quot;font-size: 20px;&quot;&gt;submit&lt;/font&gt;" style="rounded=0;whiteSpace=wrap;html=1;fontSize=32;fillColor=#f5f5f5;strokeColor=#3333FF;fontColor=#333333;" vertex="1" parent="1"><mxGeometry x="1170" y="60" width="130" height="60" as="geometry"/></mxCell><mxCell id="30" value="&lt;font style=&quot;font-size: 32px;&quot;&gt;Weitere Charts die das Dataset analysieren.&lt;br&gt;Avg, Boxplot. etc&lt;br&gt;&lt;br&gt;Wobei wahrscheinlich vorallem Korellationes werte interessant sind.&lt;br&gt;&lt;br&gt;&lt;/font&gt;" style="rounded=0;whiteSpace=wrap;html=1;strokeColor=#3333FF;fontSize=20;fontColor=#000000;fillColor=#999999;" vertex="1" parent="1"><mxGeometry x="30" y="1200" width="1760" height="550" as="geometry"/></mxCell></root></mxGraphModel></diagram><diagram id="iY9zYLI-aaAPaSGOAePO" name="Page-2"><mxGraphModel dx="1398" dy="1018" grid="1" gridSize="10" guides="1" tooltips="1" connect="1" arrows="1" fold="1" page="1" pageScale="1" pageWidth="850" pageHeight="1100" math="0" shadow="0"><root><mxCell id="0"/><mxCell id="1" parent="0"/></root></mxGraphModel></diagram></mxfile>